<?xml version="1.0" encoding="utf-8"?>
<!-- Generator: Adobe Illustrator 25.4.1, SVG Export Plug-In . SVG Version: 6.00 Build 0)  -->
<svg version="1.1" xmlns="http://www.w3.org/2000/svg" xmlns:xlink="http://www.w3.org/1999/xlink" x="0px" y="0px"
	 viewBox="0 0 76.06 27.81" style="enable-background:new 0 0 76.06 27.81;" xml:space="preserve">
<style type="text/css">
	.st0{display:none;}
</style>
<g id="Layer_1">
	<g>
		<path d="M14.95,8.37l-1.46,3.6c-0.73,1.78-1.29,3.01-1.68,3.68s-0.9,1.25-1.5,1.72c-0.88,0.69-1.9,1.04-3.06,1.04
			c-1.22,0-2.22-0.39-2.98-1.16s-1.14-1.78-1.14-3.01c0-1.65,0.6-3.1,1.81-4.33C5.59,9.24,6.4,8.7,7.38,8.29s1.95-0.61,2.91-0.61
			c0.46,0,0.83,0.1,1.12,0.31s0.42,0.48,0.42,0.82c0,0.36-0.15,0.64-0.46,0.86c-0.18,0.13-0.51,0.22-1.01,0.26
			c-1.16,0.11-2.1,0.37-2.82,0.8c-0.6,0.36-1.07,0.82-1.42,1.4S5.6,13.33,5.6,13.97c0,0.65,0.17,1.17,0.51,1.55s0.79,0.58,1.36,0.58
			c0.71,0,1.33-0.3,1.85-0.91s1.1-1.68,1.72-3.22l3.05-7.5h-0.96c-0.81,0-1.21-0.28-1.21-0.84c0-0.4,0.14-0.71,0.43-0.93
			s0.68-0.33,1.2-0.33h3.35c1.12,0,1.96,0.21,2.49,0.64s0.8,1.08,0.8,1.96c0,1.08-0.42,1.96-1.25,2.65c-0.6,0.5-1.54,0.75-2.79,0.75
			H14.95z M15.8,6.27h0.71c0.94,0,1.41-0.38,1.41-1.14c0-0.43-0.27-0.65-0.8-0.65h-0.59L15.8,6.27z"/>
		<path d="M20.93,9.57l-0.3,0.74c-0.27,0.66-0.62,0.98-1.05,0.98c-0.26,0-0.48-0.08-0.66-0.24s-0.26-0.35-0.26-0.59
			c0-0.13,0.06-0.36,0.19-0.69l0.99-2.45c0.24-0.59,0.58-0.89,1.02-0.89c0.43,0,0.7,0.21,0.8,0.62l0.07,0.27
			c0.04,0.14,0.09,0.23,0.16,0.26s0.24,0.05,0.52,0.05h2.06c0.77,0,1.15,0.27,1.15,0.81c0,0.74-0.49,1.12-1.46,1.12l-0.1,0.09
			c-0.93,0.89-1.4,1.58-1.4,2.07s0.27,0.73,0.81,0.73h1.11c0.74,0,1.12,0.26,1.12,0.77c0,0.36-0.13,0.64-0.39,0.84
			s-0.63,0.3-1.09,0.3h-1.72c-0.59,0-1.06-0.2-1.44-0.61s-0.56-0.93-0.56-1.57c0-0.41,0.1-0.81,0.3-1.2s0.55-0.86,1.05-1.42H20.93z"
			/>
		<path d="M28.19,11.8c0,0.44,0.33,0.66,0.99,0.66h2.61c0.74,0,1.11,0.26,1.11,0.78c0,0.36-0.13,0.64-0.39,0.83s-0.63,0.3-1.09,0.3
			h-2.49c-0.93,0-1.63-0.23-2.11-0.69s-0.73-1.12-0.73-2c0-1.13,0.38-2.11,1.15-2.93s1.67-1.23,2.73-1.23c0.77,0,1.38,0.2,1.85,0.6
			c0.47,0.4,0.7,0.93,0.7,1.59c0,0.79-0.32,1.38-0.97,1.76c-0.36,0.22-0.89,0.33-1.6,0.33H28.19z M28.61,10.2h0.97
			c0.63,0,0.93-0.14,0.91-0.41c-0.02-0.31-0.22-0.47-0.61-0.47C29.35,9.32,28.92,9.61,28.61,10.2z"/>
		<path d="M39.27,12.46h1c0.74,0,1.12,0.26,1.12,0.78c0,0.36-0.13,0.64-0.4,0.83s-0.63,0.3-1.09,0.3h-1.19c-0.46,0-0.79-0.19-1-0.56
			c-0.38,0.38-0.78,0.56-1.2,0.56H35.4c-0.65,0-1.17-0.22-1.56-0.67s-0.58-1.04-0.58-1.78c0-1.13,0.39-2.15,1.16-3.05
			s1.64-1.35,2.6-1.35c0.71,0,1.27,0.25,1.7,0.76l1.96-4.81c0.33-0.82,0.8-1.23,1.4-1.23c0.25,0,0.47,0.08,0.64,0.24
			s0.26,0.36,0.26,0.59c0,0.18-0.04,0.39-0.13,0.62l-0.11,0.24L39.27,12.46z M36.06,12.5h0.33c0.4,0,0.67-0.16,0.8-0.48l0.66-1.63
			c0.08-0.2,0.12-0.35,0.12-0.46c0-0.18-0.07-0.33-0.22-0.45S37.41,9.3,37.19,9.3c-0.46,0-0.88,0.25-1.28,0.76s-0.59,1.06-0.59,1.65
			C35.32,12.24,35.56,12.5,36.06,12.5z"/>
		<path d="M44.19,12.46h0.99c0.74,0,1.11,0.26,1.11,0.78c0,0.36-0.13,0.64-0.39,0.83s-0.63,0.3-1.09,0.3h-1.4
			c-0.52,0-0.92-0.11-1.22-0.32s-0.44-0.5-0.44-0.86c0-0.19,0.06-0.44,0.18-0.74l1.45-3.57l0.1-0.25c0.27-0.66,0.7-0.99,1.3-0.99
			c0.25,0,0.46,0.08,0.64,0.25s0.27,0.36,0.27,0.59c0,0.19-0.08,0.47-0.24,0.86L44.19,12.46z M45.35,4.84
			c0.34,0,0.63,0.12,0.87,0.36s0.36,0.53,0.36,0.87s-0.12,0.63-0.36,0.87s-0.53,0.36-0.87,0.36s-0.63-0.12-0.87-0.36
			s-0.36-0.53-0.36-0.87s0.12-0.63,0.36-0.87S45.01,4.84,45.35,4.84z"/>
		<path d="M51.66,14.37h-2.55c-0.73,0-1.33-0.26-1.79-0.77s-0.69-1.18-0.69-2c0-1.1,0.38-2.05,1.13-2.86s1.64-1.21,2.66-1.21
			c0.69,0,1.25,0.19,1.69,0.58S52.76,9,52.76,9.62c0,0.43-0.11,0.79-0.33,1.07s-0.5,0.42-0.83,0.42c-0.54,0-0.81-0.25-0.81-0.76
			c0-0.08,0-0.14,0-0.19c0.01-0.06,0.01-0.13,0.01-0.18c0-0.41-0.2-0.62-0.61-0.62c-0.38,0-0.73,0.2-1.04,0.61s-0.47,0.86-0.47,1.35
			c0,0.42,0.13,0.71,0.38,0.88s0.69,0.26,1.3,0.26h1.66c0.74,0,1.12,0.26,1.12,0.78c0,0.35-0.13,0.63-0.4,0.83
			S52.11,14.37,51.66,14.37z"/>
		<path d="M57.86,7.65h0.27c0.74,0,1.12,0.26,1.12,0.78c0,0.36-0.13,0.64-0.4,0.83s-0.63,0.3-1.09,0.3h-0.64l-1.18,2.89h0.98
			c0.74,0,1.12,0.26,1.12,0.78c0,0.36-0.13,0.64-0.39,0.83s-0.63,0.3-1.09,0.3h-1.57c-0.45,0-0.8-0.1-1.06-0.31
			s-0.39-0.48-0.39-0.83c0-0.22,0.05-0.46,0.16-0.72l0.17-0.39l1.04-2.56h-0.13c-0.66,0-0.98-0.25-0.98-0.76
			c0-0.36,0.13-0.65,0.39-0.85s0.63-0.3,1.09-0.3h0.4l0.47-1.15l0.1-0.24c0.28-0.65,0.71-0.98,1.3-0.98c0.24,0,0.45,0.08,0.62,0.24
			s0.26,0.36,0.26,0.58c0,0.22-0.08,0.5-0.23,0.84L57.86,7.65z"/>
		<path d="M62.95,7.53c0.85,0,1.55,0.27,2.1,0.81s0.82,1.22,0.82,2.06c0,0.63-0.14,1.25-0.43,1.87s-0.66,1.11-1.12,1.48
			c-0.3,0.24-0.62,0.41-0.94,0.5s-0.78,0.14-1.37,0.14c-0.96,0-1.6-0.11-1.93-0.34c-0.79-0.54-1.18-1.34-1.18-2.39
			c0-1.11,0.4-2.08,1.2-2.89S61.86,7.53,62.95,7.53z M62.74,9.4c-0.43,0-0.83,0.21-1.19,0.64s-0.54,0.9-0.54,1.42
			c0,0.68,0.38,1.02,1.14,1.02c0.45,0,0.79-0.14,1.03-0.41c0.4-0.45,0.6-0.97,0.6-1.55c0-0.33-0.1-0.6-0.29-0.81
			S63.05,9.4,62.74,9.4z"/>
		<path d="M68.53,9.57l-0.3,0.74c-0.27,0.66-0.62,0.98-1.05,0.98c-0.26,0-0.48-0.08-0.66-0.24s-0.26-0.35-0.26-0.59
			c0-0.13,0.06-0.36,0.19-0.69l0.99-2.45c0.24-0.59,0.58-0.89,1.02-0.89c0.43,0,0.7,0.21,0.8,0.62l0.07,0.27
			c0.04,0.14,0.09,0.23,0.16,0.26s0.24,0.05,0.52,0.05h2.06c0.77,0,1.15,0.27,1.15,0.81c0,0.74-0.49,1.12-1.46,1.12l-0.1,0.09
			c-0.93,0.89-1.4,1.58-1.4,2.07s0.27,0.73,0.81,0.73h1.11c0.74,0,1.12,0.26,1.12,0.77c0,0.36-0.13,0.64-0.39,0.84
			s-0.63,0.3-1.09,0.3h-1.72c-0.59,0-1.06-0.2-1.44-0.61s-0.56-0.93-0.56-1.57c0-0.41,0.1-0.81,0.3-1.2s0.55-0.86,1.05-1.42H68.53z"
			/>
	</g>
</g>
<g id="Layer_2" class="st0">
</g>
</svg>
